# xmcd
#
# Track frame offsets:
#	150
#	6787
#	22489
#	49644
#	84871
#	114665
#	138194
#	152234
#	171435
#	187552
#	249046
#	279494
#	302038
#	316434
#	335294
#
# Disc length: 4685 seconds
#
# Revision: 1
# Processed by: cddbd v1.5.1PL2 Copyright (c) Steve Scherf et al.
# Submitted via: audiograbber 1.81.02
#
DISCID=bc124b0f
DTITLE=B.B. King - Festival De San Sebastian
DYEAR=2000
DGENRE=Blues
TTITLE0=Introduction
TTITLE1=Let The Good Time Roll
TTITLE2=I'll Survive
TTITLE3=Bad Case Of Love
TTITLE4=Peace Of Mind
TTITLE5=The Thrill Is Gone
TTITLE6=I know
TTITLE7=Don't Look No Further
TTITLE8=Please Accept My Love
TTITLE9=Making Love Is Good For You
TTITLE10=Peace Of Mind*
TTITLE11=The Thrill Is Gone*
TTITLE12=I know*
TTITLE13=Don't Look No Further*
TTITLE14=Please Accept My Love*
EXTD=
EXTT0=
EXTT1=
EXTT2=
EXTT3=
EXTT4=
EXTT5=
EXTT6=
EXTT7=
EXTT8=
EXTT9=
EXTT10=
EXTT11=
EXTT12=
EXTT13=
EXTT14=
PLAYORDER=
